<?xml version="1.0" standalone="no"?>
<!DOCTYPE svg PUBLIC "-//W3C//DTD SVG 1.1//EN" "http://www.w3.org/Graphics/SVG/1.1/DTD/svg11.dtd" >
<svg xmlns="http://www.w3.org/2000/svg">
<metadata>Generated by IcoMoon</metadata>
<defs>
<font id="icomoon" horiz-adv-x="1024">
<font-face units-per-em="1024" ascent="960" descent="-64" />
<missing-glyph horiz-adv-x="1024" />
<glyph unicode="&#x20;" horiz-adv-x="512" d="" />
<glyph unicode="&#xe900;" glyph-name="i_ico1" d="M737.28 478.72h-194.56v194.56c0 16.978-13.742 30.72-30.72 30.72s-30.72-13.742-30.72-30.72v-194.56h-194.56c-16.978 0-30.72-13.742-30.72-30.72s13.742-30.72 30.72-30.72h194.56v-194.56c0-16.957 13.742-30.72 30.72-30.72s30.72 13.763 30.72 30.72v194.56h194.56c16.957 0 30.72 13.742 30.72 30.72s-13.763 30.72-30.72 30.72z" />
<glyph unicode="&#xe901;" glyph-name="i_ico2" d="M747.52 468.48h-450.56c-16.957 0-30.72-13.742-30.72-30.72 0-16.957 13.763-30.72 30.72-30.72h450.56c16.957 0 30.72 13.763 30.72 30.72 0 16.978-13.763 30.72-30.72 30.72z" />
<glyph unicode="&#xe902;" glyph-name="i_ico3" d="M839.68 478.72h-86.753c-13.906 109.466-100.721 196.301-210.207 210.207v86.753c0 16.978-13.763 30.72-30.72 30.72s-30.72-13.742-30.72-30.72v-86.753c-109.466-13.906-196.301-100.741-210.207-210.207h-86.753c-16.957 0-30.72-13.742-30.72-30.72s13.763-30.72 30.72-30.72h86.753c13.906-109.466 100.721-196.301 210.207-210.207v-86.753c0-16.957 13.763-30.72 30.72-30.72s30.72 13.763 30.72 30.72v86.753c109.466 13.906 196.301 100.721 210.207 210.207h86.753c16.957 0 30.72 13.742 30.72 30.72s-13.763 30.72-30.72 30.72zM512 266.363c-100.168 0-181.637 81.49-181.637 181.637s81.49 181.658 181.637 181.658 181.637-81.49 181.637-181.658-81.469-181.637-181.637-181.637zM512 568.566c-66.478 0-120.566-54.088-120.566-120.566s54.088-120.566 120.566-120.566 120.566 54.088 120.566 120.566-54.088 120.566-120.566 120.566zM512 388.874c-32.604 0-59.126 26.522-59.126 59.126s26.522 59.126 59.126 59.126 59.126-26.522 59.126-59.126-26.522-59.126-59.126-59.126z" />
<glyph unicode="&#xe903;" glyph-name="i_ico4" d="M542.72 740.291v27.853c0 16.978-13.763 30.72-30.72 30.72s-30.72-13.742-30.72-30.72v-27.853c-120.955-14.643-215.040-117.76-215.040-242.606v-277.688c0-16.957 13.763-30.72 30.72-30.72h122.88c0-50.811 41.349-92.16 92.16-92.16s92.16 41.349 92.16 92.16h122.88c16.957 0 30.72 13.763 30.72 30.72v277.688c0 124.846-94.085 227.963-215.040 242.606zM512 158.556c-16.937 0-30.72 13.783-30.72 30.72h61.44c0-16.937-13.783-30.72-30.72-30.72zM696.32 250.716h-368.64v246.968c0 100.966 82.145 183.112 183.112 183.112h2.396c100.987 0 183.112-82.145 183.112-183.112v-246.968z" />
<glyph unicode="&#xe904;" glyph-name="i_ico5" d="M856.986 506.737c-1.618 10.301-8.376 19.087-17.94 23.306l-74.936 33.055c-5.161 10.322-11.039 20.439-17.572 30.228l9.953 91.423c1.065 9.769-2.621 19.476-9.892 26.071-31.846 28.877-68.157 51.384-107.95 66.867-9.748 3.789-20.808 2.355-29.286-3.85l-77.128-56.463c-11.858 0.799-23.245 0.778-35.348 0l-78.848 57.713c-8.335 6.124-19.21 7.619-28.959 3.953-39.219-14.746-75.080-36.147-106.537-63.59-7.578-6.595-11.448-16.486-10.363-26.46l10.404-95.662c-6.533-9.81-12.411-19.907-17.551-30.228l-80.466-35.451c-9.646-4.26-16.425-13.148-17.981-23.572-2.908-19.456-4.26-35.983-4.26-52.060 0-26.911 3.441-54.723 10.199-82.596 2.253-9.277 8.724-16.998 17.469-20.849l75.018-33.075c5.161-10.342 11.039-20.439 17.572-30.249l-7.885-72.499c-1.106-10.097 2.888-20.091 10.609-26.685 38.093-32.522 81.818-56.013 129.946-69.857 2.806-0.799 5.652-1.208 8.499-1.208 6.451 0 12.82 2.048 18.145 5.939l54.989 40.243c12.042-0.758 23.532-0.758 35.389 0l53.617-39.281c7.803-5.693 17.797-7.373 27.013-4.649 48.415 14.602 92.467 39.301 130.929 73.421 7.434 6.595 11.223 16.425 10.138 26.296l-7.434 68.26c6.533 9.789 12.411 19.907 17.572 30.249l69.263 30.536c8.663 3.83 15.073 11.428 17.408 20.603 7.229 28.774 10.895 57.508 10.895 85.381-0.020 16.937-1.536 34.836-4.69 54.743zM794.44 396.001l-65.618-28.938c-6.984-3.072-12.575-8.663-15.688-15.647-6.124-13.804-13.947-27.238-23.204-39.936-4.526-6.185-6.554-13.844-5.734-21.443l6.902-63.447c-24.842-19.866-52.204-35.205-81.654-45.793l-50.176 36.762c-6.205 4.547-13.865 6.574-21.443 5.755-15.954-1.7-30.577-1.7-46.49 0-7.66 0.84-15.278-1.229-21.443-5.755l-51.732-37.888c-29.102 9.994-56.095 24.433-80.548 43.090l7.291 67.277c0.819 7.619-1.229 15.258-5.734 21.443-9.277 12.698-17.080 26.132-23.163 39.916-3.092 7.004-8.704 12.575-15.708 15.667l-71.25 31.416c-3.523 18.166-5.304 36.106-5.304 53.514 0 8.335 0.471 16.957 1.454 26.399l75.080 33.096c7.004 3.092 12.575 8.663 15.688 15.667 6.103 13.763 13.906 27.197 23.183 39.895 4.526 6.185 6.554 13.824 5.734 21.443l-9.851 90.644c18.616 14.52 38.892 26.644 60.559 36.209l74.281-54.374c6.144-4.506 13.804-6.533 21.402-5.755 16.097 1.741 30.331 1.72 46.531 0 7.66-0.778 15.237 1.249 21.402 5.755l72.356 52.982c22.221-10.158 43.008-23.101 62.054-38.646l-9.462-86.815c-0.819-7.619 1.229-15.258 5.734-21.443 9.257-12.698 17.080-26.132 23.204-39.936 3.092-6.984 8.704-12.554 15.688-15.647l69.693-30.72c1.147-10.22 1.7-19.722 1.7-28.754 0.041-18.227-1.884-37.007-5.734-55.992zM512 591.36c-79.032 0-143.36-64.307-143.36-143.36 0-79.032 64.328-143.36 143.36-143.36s143.36 64.328 143.36 143.36c0 79.053-64.328 143.36-143.36 143.36zM512 366.080c-45.179 0-81.92 36.741-81.92 81.92s36.741 81.92 81.92 81.92 81.92-36.741 81.92-81.92c0-45.179-36.741-81.92-81.92-81.92z" />
<glyph unicode="&#xe905;" glyph-name="i_ico6" d="M878.305 717.496c-7.905 5.796-18.166 7.475-27.443 4.485l-221.020-70.164-221.020 70.164c-4.792 1.536-9.83 1.782-14.664 0.922-4.833 0.86-9.871 0.594-14.643-0.922l-224.973-71.414c-12.759-4.055-21.422-15.892-21.422-29.286v-499.917c0-9.81 4.69-19.005 12.575-24.801 5.325-3.891 11.694-5.919 18.145-5.919 3.113 0 6.267 0.471 9.298 1.434l221.020 70.144 221.020-70.144c3.031-0.963 6.185-1.434 9.298-1.434 1.823 0 3.564 0.532 5.366 0.84 1.782-0.328 3.543-0.84 5.366-0.84 3.113 0 6.267 0.471 9.298 1.434l224.952 71.393c12.759 4.035 21.422 15.892 21.422 29.286v499.958c0 9.789-4.69 19.005-12.575 24.781zM358.072 215.265l-163.512-51.896v435.446l163.512 51.917v-435.466zM593.756 163.369l-163.512 51.896v435.466l163.512-51.917v-435.446zM829.44 215.265l-163.512-51.896v435.446l163.512 51.917v-435.466z" />
<glyph unicode="&#xe906;" glyph-name="i_ico7" d="M511.652 391.885c86.057 0 156.058 70.001 156.058 156.058s-70.001 156.058-156.058 156.058-156.058-70.001-156.058-156.058 70.001-156.058 156.058-156.058zM511.652 642.56c52.183 0 94.618-42.455 94.618-94.618s-42.435-94.618-94.618-94.618-94.618 42.455-94.618 94.618 42.455 94.618 94.618 94.618zM715.1 347.464c-11.735 14.172-28.59 22.303-46.264 22.303h-314.368c-17.654 0-34.55-8.131-46.285-22.323-13.169-15.913-18.637-37.97-14.643-58.982l21.729-114.278c5.919-31.212 31.539-53.862 60.928-53.862h270.93c29.389 0 55.030 22.63 60.948 53.842l21.729 114.319c3.953 21.012-1.516 43.069-14.705 58.982zM647.7 185.61c-0.41-2.068-1.188-3.297-1.679-3.85l-268.37-0.348c-0.369 0.246-1.516 1.536-2.028 4.219l-21.729 114.299c-0.881 4.628 1.085 8.090 0.553 8.376l312.893 0.369c0.963-0.655 2.929-4.137 2.048-8.745l-21.688-114.319z" />
<glyph unicode="&#xe907;" glyph-name="i_ico8" d="M765.481 769.884c-8.028 5.775-18.309 7.352-27.689 4.219l-430.080-143.36c-12.534-4.178-20.992-15.913-20.992-29.143v-471.040c0-16.957 13.763-30.72 30.72-30.72h430.080c16.957 0 30.72 13.763 30.72 30.72v614.4c0 9.871-4.731 19.149-12.759 24.924zM573.44 161.28h-81.92v122.88h81.92v-122.88zM716.8 161.28h-81.92v153.6c0 16.957-13.763 30.72-30.72 30.72h-143.36c-16.957 0-30.72-13.763-30.72-30.72v-153.6h-81.92v418.181l368.64 122.88v-541.061zM440.32 488.96h40.96c16.957 0 30.72 13.742 30.72 30.72s-13.763 30.72-30.72 30.72h-40.96c-16.957 0-30.72-13.742-30.72-30.72s13.763-30.72 30.72-30.72zM583.68 488.96h40.96c16.957 0 30.72 13.742 30.72 30.72s-13.763 30.72-30.72 30.72h-40.96c-16.957 0-30.72-13.742-30.72-30.72s13.763-30.72 30.72-30.72z" />
<glyph unicode="&#xe908;" glyph-name="i_ico9" d="M512 775.68c-180.675 0-327.68-147.005-327.68-327.68 0-33.505 5.038-66.56 14.971-98.243 5.1-16.159 22.262-25.19 38.523-20.111 16.179 5.1 25.19 22.344 20.111 38.523-8.069 25.702-12.165 52.572-12.165 79.831 0 146.801 119.439 266.24 266.24 266.24s266.24-119.439 266.24-266.24c0-27.443-4.137-54.456-12.329-80.323-5.12-16.179 3.85-33.444 20.029-38.543 3.072-0.983 6.205-1.434 9.257-1.434 13.046 0 25.149 8.356 29.286 21.463 10.076 31.846 15.196 65.126 15.196 98.836 0 180.675-147.005 327.68-327.68 327.68zM512 652.8c-112.927 0-204.8-91.873-204.8-204.8 0-16.978 13.763-30.72 30.72-30.72s30.72 13.742 30.72 30.72c0 79.053 64.328 143.36 143.36 143.36s143.36-64.307 143.36-143.36c0-16.978 13.763-30.72 30.72-30.72s30.72 13.742 30.72 30.72c0 112.927-91.873 204.8-204.8 204.8zM593.92 448c0 45.179-36.741 81.92-81.92 81.92s-81.92-36.741-81.92-81.92c0-34.304 21.217-63.652 51.2-75.837v-139.203h-19.272c-16.957 0-30.72-13.763-30.72-30.72s13.763-30.72 30.72-30.72h100.004c16.957 0 30.72 13.763 30.72 30.72s-13.763 30.72-30.72 30.72h-19.292v139.203c29.983 12.186 51.2 41.533 51.2 75.837zM512 427.52c-11.305 0-20.48 9.196-20.48 20.48s9.175 20.48 20.48 20.48 20.48-9.196 20.48-20.48-9.175-20.48-20.48-20.48z" />
<glyph unicode="&#xe909;" glyph-name="i_ico10" d="M810.332 547.963c24.412 24.146 39.588 57.631 39.588 94.597 0 73.4-59.72 133.12-133.12 133.12-34.12 0-65.167-13.005-88.76-34.202-27.505 8.929-56.095 13.722-85.32 13.722-100.864 0-194.232-55.931-242.463-143.708-70.164-3.645-126.177-61.706-126.177-132.772 0-71.086 56.054-129.167 126.259-132.772 46.531-84.664 135.414-139.633 232.038-143.34 20.009-48.251 67.584-82.289 122.982-82.289 73.4 0 133.12 59.72 133.12 133.12 0 24.74-6.902 47.862-18.719 67.727 31.908 46.039 49.439 101.212 49.439 157.553 0 23.532-3.052 46.735-8.868 69.243zM307.2 407.040c-39.526 0-71.68 32.154-71.68 71.68s32.154 71.68 71.68 71.68 71.68-32.154 71.68-71.68-32.154-71.68-71.68-71.68zM655.36 181.76c-39.526 0-71.68 32.154-71.68 71.68s32.154 71.68 71.68 71.68 71.68-32.154 71.68-71.68-32.154-71.68-71.68-71.68zM725.811 366.182c-20.46 12.841-44.564 20.378-70.451 20.378-69.468 0-126.607-53.535-132.526-121.487-64.819 5.898-122.593 39.834-158.556 93.573 44.872 21.422 76.042 67.133 76.042 120.074 0 52.9-31.089 98.55-75.899 120.013 39.588 58.532 106.476 95.027 178.299 95.027 16.691 0 33.075-2.109 49.091-5.857-5.161-14.172-8.131-29.409-8.131-45.343 0-73.4 59.72-133.12 133.12-133.12 13.148 0 25.846 1.987 37.847 5.55 2.028-11.919 3.113-24.023 3.113-36.27 0-40.468-11.080-78.828-31.949-112.538zM716.8 570.88c-39.526 0-71.68 32.154-71.68 71.68s32.154 71.68 71.68 71.68 71.68-32.154 71.68-71.68-32.154-71.68-71.68-71.68z" />
<glyph unicode="&#xe90a;" glyph-name="i_ico11" d="M670.577 667.484h-427.397c-16.957 0-30.72-13.742-30.72-30.72v-516.444c0-16.957 13.763-30.72 30.72-30.72h427.397c16.957 0 30.72 13.763 30.72 30.72v516.444c0 16.978-13.763 30.72-30.72 30.72zM639.857 151.040h-365.957v455.004h365.957v-455.004zM779.018 765.44h-427.418c-16.957 0-30.72-13.742-30.72-30.72s13.763-30.72 30.72-30.72h396.698v-485.745c0-16.957 13.763-30.72 30.72-30.72s30.72 13.763 30.72 30.72v516.465c0 16.978-13.763 30.72-30.72 30.72zM375.173 285.491h163.41c16.957 0 30.72 13.763 30.72 30.72s-13.763 30.72-30.72 30.72h-163.41c-16.957 0-30.72-13.763-30.72-30.72s13.763-30.72 30.72-30.72zM375.173 196.465h163.41c16.957 0 30.72 13.763 30.72 30.72s-13.763 30.72-30.72 30.72h-163.41c-16.957 0-30.72-13.763-30.72-30.72s13.763-30.72 30.72-30.72z" />
<glyph unicode="&#xe90b;" glyph-name="i_ico12" d="M583.68 652.8c-62.095 0-112.64-50.524-112.64-112.64s50.545-112.64 112.64-112.64 112.64 50.524 112.64 112.64-50.545 112.64-112.64 112.64zM583.68 488.96c-28.242 0-51.2 22.979-51.2 51.2s22.958 51.2 51.2 51.2 51.2-22.979 51.2-51.2-22.958-51.2-51.2-51.2zM578.56 755.2c-124.211 0-225.28-101.069-225.28-225.28 0-38.932 10.097-77.292 29.204-111.002l133.857-274.248c11.592-24.146 35.43-39.137 62.218-39.137s50.627 14.991 62.116 38.953l133.857 274.289c19.19 33.731 29.307 72.131 29.307 111.145 0 124.211-101.069 225.28-225.28 225.28zM720.732 448.451c-0.348-0.594-0.655-1.208-0.963-1.843l-134.39-275.333c-1.7-3.564-4.649-4.301-6.82-4.301s-5.12 0.737-6.922 4.485l-134.39 275.292c-0.307 0.614-0.614 1.208-0.942 1.802-14.131 24.637-21.586 52.777-21.586 81.367 0 90.337 73.503 163.84 163.84 163.84s163.84-73.503 163.84-163.84c0-28.631-7.475-56.812-21.668-81.469z" />
<glyph unicode="&#xe90c;" glyph-name="i_ico13" d="M296.96 570.88h35.082c13.414-47.206 56.832-81.92 108.278-81.92s94.843 34.714 108.278 81.92h198.922c16.957 0 30.72 13.742 30.72 30.72s-13.763 30.72-30.72 30.72h-198.922c-13.414 47.206-56.832 81.92-108.278 81.92s-94.843-34.714-108.278-81.92h-35.082c-16.957 0-30.72-13.742-30.72-30.72s13.763-30.72 30.72-30.72zM440.32 652.8c28.242 0 51.2-22.979 51.2-51.2s-22.958-51.2-51.2-51.2-51.2 22.979-51.2 51.2 22.958 51.2 51.2 51.2zM747.52 366.080h-35.082c-13.414 47.206-56.832 81.92-108.278 81.92s-94.843-34.714-108.278-81.92h-198.922c-16.957 0-30.72-13.763-30.72-30.72s13.763-30.72 30.72-30.72h198.922c13.414-47.206 56.832-81.92 108.278-81.92s94.843 34.714 108.278 81.92h35.082c16.957 0 30.72 13.763 30.72 30.72s-13.763 30.72-30.72 30.72zM604.16 284.16c-28.242 0-51.2 22.958-51.2 51.2s22.958 51.2 51.2 51.2 51.2-22.958 51.2-51.2-22.958-51.2-51.2-51.2z" />
<glyph unicode="&#xe90d;" glyph-name="i_ico14" d="M759.48 278.917l-59.064 59.064c56.463 83.599 47.821 198.369-26.112 272.302-40.632 40.632-94.618 62.996-152.064 62.996s-111.432-22.364-152.064-62.996c-83.845-83.845-83.845-220.262 0-304.108 41.923-41.923 96.993-62.874 152.064-62.874 48.64 0 97.26 16.425 136.847 49.132l56.955-56.955c6.001-6.001 13.865-8.991 21.729-8.991s15.729 2.99 21.729 8.991c11.981 12.001 11.981 31.437-0.020 43.438zM413.614 349.614c-59.884 59.904-59.884 157.348 0 217.231 29.020 29.020 67.584 44.995 108.626 44.995s79.606-15.974 108.626-44.995c59.884-59.884 59.884-157.327 0-217.231-59.884-59.884-157.368-59.884-217.252 0z" />
<glyph unicode="&#xe90e;" glyph-name="i_ico15" d="M512 693.76c-135.516 0-245.76-110.244-245.76-245.76s110.244-245.76 245.76-245.76 245.76 110.244 245.76 245.76-110.244 245.76-245.76 245.76zM512 263.68c-101.642 0-184.32 82.678-184.32 184.32s82.678 184.32 184.32 184.32 184.32-82.678 184.32-184.32-82.678-184.32-184.32-184.32zM645.12 448c0-73.52-59.6-133.12-133.12-133.12s-133.12 59.6-133.12 133.12c0 73.52 59.6 133.12 133.12 133.12s133.12-59.6 133.12-133.12z" />
<glyph unicode="&#xe90f;" glyph-name="i_ico16" d="M598.385 512.819l-55.665-66.028v265.789c0 16.957-13.763 30.72-30.72 30.72s-30.72-13.763-30.72-30.72v-265.789l-55.665 66.028c-6.062 7.209-14.766 10.916-23.491 10.916-6.984 0-14.029-2.376-19.784-7.229-12.984-10.936-14.623-30.31-3.686-43.295l109.855-130.335c11.633-13.844 35.328-13.844 46.961 0l109.855 130.335c10.936 12.964 9.298 32.358-3.686 43.295-12.964 10.957-32.379 9.277-43.254-3.686zM808.96 459.899c-16.957 0-30.72-13.763-30.72-30.72v-215.040h-532.48v215.040c0 16.957-13.763 30.72-30.72 30.72s-30.72-13.763-30.72-30.72v-245.76c0-16.957 13.763-30.72 30.72-30.72h593.92c16.957 0 30.72 13.763 30.72 30.72v245.76c0 16.957-13.763 30.72-30.72 30.72z" />
<glyph unicode="&#xe910;" glyph-name="i_ico17" d="M496.415 626.79c-10.895 12.984-30.31 14.664-43.274 3.686l-188.641-158.986c-6.922-5.837-10.916-14.438-10.916-23.491s3.994-17.654 10.916-23.491l188.641-158.986c5.755-4.854 12.8-7.25 19.784-7.25 8.745 0 17.449 3.727 23.491 10.916 10.936 12.984 9.298 32.358-3.686 43.274l-160.768 135.537 160.788 135.496c12.964 10.936 14.602 30.31 3.666 43.295zM598.733 448l160.768 135.496c12.984 10.936 14.623 30.31 3.686 43.295-10.916 12.984-30.31 14.664-43.274 3.686l-188.621-158.986c-6.922-5.837-10.916-14.438-10.916-23.491s3.994-17.654 10.916-23.491l188.621-158.986c5.755-4.854 12.8-7.25 19.784-7.25 8.745 0 17.449 3.727 23.491 10.916 10.936 12.984 9.298 32.358-3.686 43.274l-160.768 135.537z" />
<glyph unicode="&#xe911;" glyph-name="i_ico18" d="M606.29 258.273c-6.984 0-14.029 2.376-19.784 7.25l-188.621 158.986c-6.922 5.837-10.916 14.438-10.916 23.491s3.994 17.654 10.916 23.491l188.621 158.986c12.964 10.977 32.358 9.298 43.274-3.686 10.936-12.964 9.298-32.358-3.686-43.295l-160.748-135.496 160.768-135.516c12.984-10.916 14.623-30.29 3.686-43.274-6.062-7.209-14.766-10.936-23.511-10.936z" />
<glyph unicode="&#xe912;" glyph-name="i_ico19" d="M417.71 637.727c6.984 0 14.029-2.376 19.784-7.25l188.621-158.986c6.922-5.837 10.916-14.438 10.916-23.491s-3.994-17.654-10.916-23.491l-188.621-158.986c-12.964-10.977-32.358-9.298-43.274 3.686-10.936 12.964-9.298 32.358 3.686 43.295l160.748 135.496-160.768 135.516c-12.984 10.916-14.623 30.29-3.686 43.274 6.062 7.209 14.766 10.936 23.511 10.936z" />
<glyph unicode="&#xe913;" glyph-name="i_ico20" d="M527.585 269.21c10.895-12.984 30.31-14.664 43.274-3.686l188.641 158.986c6.922 5.837 10.916 14.438 10.916 23.491s-3.994 17.654-10.916 23.491l-188.641 158.986c-5.755 4.854-12.8 7.25-19.784 7.25-8.745 0-17.449-3.727-23.491-10.916-10.936-12.984-9.298-32.358 3.686-43.274l160.768-135.537-160.788-135.496c-12.964-10.936-14.602-30.31-3.666-43.295zM425.267 448l-160.768-135.496c-12.984-10.936-14.623-30.31-3.686-43.295 10.916-12.984 30.31-14.664 43.274-3.686l188.621 158.986c6.922 5.837 10.916 14.438 10.916 23.491s-3.994 17.654-10.916 23.491l-188.621 158.986c-5.755 4.854-12.8 7.25-19.784 7.25-8.745 0-17.449-3.727-23.491-10.916-10.936-12.984-9.298-32.358 3.686-43.274l160.768-135.537z" />
<glyph unicode="&#xe914;" glyph-name="i_ico21" d="M713.748 650.26c-2.478 6.595-7.434 11.96-13.844 14.909l-165.745 76.001c-13.353 6.021-29.061 0.184-35.246-13.066l-171.028-372.941c0-0.266 0-0.532-0.266-0.799-2.109-4.424-2.949-9.359-2.417-14.213l12.841-112.722c3.953-35.389 35.82-60.867 71.209-56.914 10.486 1.167 20.521 4.895 29.225 10.854l93.819 63.857c4.157 2.847 7.393 6.84 9.359 11.469 0 0 0.184 0.225 0.266 0.389l171.049 372.859c2.97 6.39 3.236 13.701 0.778 20.316zM408.617 225.321c-5.284-3.482-12.411-2.028-15.892 3.256-0.963 1.475-1.597 3.154-1.802 4.895l-7.639 67.092 81.162-37.233-55.828-38.011zM504.73 303.37l-117.371 53.842 112.21 244.695 58.696-26.767c3.461-1.618 7.229-2.437 11.059-2.437 14.787 0.369 26.46 12.657 26.071 27.443-0.246 9.953-6.021 18.944-14.95 23.347l-58.696 26.767 14.459 31.539 117.371-53.842-148.849-324.588z" />
<glyph unicode="&#xe915;" glyph-name="i_ico22" d="M681.554 581.837h-339.251c-14.254 0-25.805-11.551-25.805-25.805 0-0.696 0.020-1.413 0.082-2.109l29.512-368.906c1.065-13.414 12.268-23.736 25.723-23.736h280.371c13.455 0 24.658 10.322 25.723 23.736l29.512 368.906c1.167 14.213-9.421 26.665-23.613 27.812-0.696 0.061-1.413 0.082-2.109 0.082h-0.143zM628.019 212.931h-232.387l-25.395 317.297h283.464l-25.682-317.297zM342.303 603.976h339.251c14.254 0.553 25.375 12.554 24.822 26.808-0.512 13.496-11.346 24.31-24.822 24.822h-77.332v53.248c0.020 14.254-11.51 25.825-25.764 25.846-0.020 0-0.061 0-0.082 0h-125.399c-14.254 0.020-25.825-11.51-25.846-25.764 0-0.020 0-0.041 0-0.082v-53.248h-84.869c-14.254-0.553-25.375-12.554-24.822-26.808 0.512-13.496 11.346-24.31 24.822-24.822h0.041zM478.925 683.069h73.789v-27.443h-73.789v27.443zM460.349 308.961c14.254-0.020 25.825 11.51 25.846 25.764 0 0.020 0 0.041 0 0.082v103.219c0.553 14.254-10.568 26.276-24.822 26.808s-26.276-10.568-26.808-24.822c-0.020-0.655-0.020-1.331 0-1.987v-103.219c-0.020-14.254 11.51-25.825 25.764-25.846 0 0 0 0 0.020 0zM548.884 308.961c14.254-0.020 25.825 11.51 25.846 25.764 0 0.020 0 0.041 0 0.082v103.219c-0.553 14.254-12.554 25.375-26.808 24.822-13.496-0.512-24.31-11.346-24.822-24.822v-103.219c-0.020-14.254 11.51-25.825 25.764-25.846 0 0 0.020 0 0.020 0z" />
<glyph unicode="&#xe916;" glyph-name="i_ico23" d="M668.611 765.44h-313.221c-88.678 0-160.829-72.151-160.829-160.829v-313.221c0-88.678 72.131-160.829 160.829-160.829h313.242c88.678 0 160.829 72.131 160.829 160.829v313.221c-0.020 88.678-72.151 160.829-160.85 160.829zM768 291.389c0-54.804-44.585-99.389-99.389-99.389h-313.221c-54.804 0-99.389 44.585-99.389 99.389v313.221c0 54.804 44.585 99.389 99.389 99.389h313.242c54.804 0 99.389-44.585 99.389-99.389v-313.221zM614.707 335.36h-215.654c-16.957 0-30.72-13.763-30.72-30.72s13.763-30.72 30.72-30.72h215.634c16.957 0 30.72 13.763 30.72 30.72s-13.742 30.72-30.7 30.72zM485.151 375.071c2.847-2.847 6.267-5.12 10.035-6.676 0.164-0.061 0.328-0.082 0.471-0.143 3.502-1.352 7.27-2.171 11.223-2.171s7.721 0.819 11.203 2.171c0.164 0.061 0.328 0.082 0.471 0.143 3.789 1.556 7.188 3.83 10.035 6.676l64 64c12.001 11.981 12.001 31.457 0 43.438-12.001 12.001-31.437 12.001-43.438 0l-11.551-11.551v120.402c0 16.978-13.763 30.72-30.72 30.72s-30.72-13.742-30.72-30.72v-120.402l-11.551 11.551c-12.001 12.001-31.437 12.001-43.438 0-12.001-11.981-12.001-31.457 0-43.438l63.98-64z" />
<glyph unicode="&#xe917;" glyph-name="i_ico24" d="M512 755.2c-169.656 0-307.2-137.544-307.2-307.2s137.544-307.2 307.2-307.2 307.2 137.544 307.2 307.2c0 169.656-137.544 307.2-307.2 307.2zM636.129 367.329c12.001-12.001 12.001-31.437 0-43.438-6.001-6.021-13.865-9.011-21.729-9.011s-15.729 2.99-21.729 8.991l-80.671 80.691-80.671-80.671c-6.001-6.021-13.865-9.011-21.729-9.011s-15.729 2.99-21.729 8.991c-12.001 12.001-12.001 31.437 0 43.438l80.691 80.691-80.671 80.671c-12.001 11.981-12.001 31.457 0 43.438 12.001 12.001 31.437 12.001 43.438 0l80.671-80.671 80.671 80.671c12.001 12.001 31.437 12.001 43.438 0 12.001-11.981 12.001-31.457 0-43.438l-80.671-80.671 80.691-80.671z" />
<glyph unicode="&#xe918;" glyph-name="i_ico25" d="M511.57 765.44c-175.35-0.451-317.112-142.971-316.662-318.3 0.41-162.406 123.331-298.312 284.877-314.982 10.445-1.044 21.074-1.597 31.785-1.597s21.34 0.553 31.785 1.597c174.449 17.531 301.65 173.138 284.119 347.587-16.282 162.222-152.842 285.737-315.904 285.696zM511.57 706.396c117.125-0.205 219.443-79.176 249.364-192.389-52.941 14.643-107.131 24.248-161.874 28.652-46.797 47.841-123.351 49.172-171.786 2.99-53.617-2.232-107.090-7.291-160.195-15.135 35.471 104.878 133.796 175.493 244.49 175.636v0.246zM455.741 427.069l-0.451 0.86c-9.871 18.534-9.503 40.837 0.963 59.044 15.34 31.334 53.187 44.319 84.521 28.979s44.319-53.187 28.979-84.521c-0.737-1.495-1.516-2.949-2.355-4.362l-0.369-0.676c-16.404-30.638-54.518-42.168-85.156-25.764-11.182 5.96-20.275 15.176-26.132 26.44zM253.358 448.225c0 7.27 0.492 14.356 1.085 21.484 2.765-0.389 5.55-0.389 8.315 0 1.188 0 53.453 9.093 129.27 14.254-4.567-19.354-4.198-39.547 1.044-58.737-70.124-4.547-121.733-12.534-136.581-14.991-1.946 12.493-2.99 25.108-3.092 37.745l-0.041 0.246zM271.852 352.85c49.992 7.373 100.311 12.227 150.794 14.541v-161.198c-68.649 25.313-123.412 78.459-150.753 146.35l-0.041 0.307zM481.915 191.918v145.572c19.374-4.977 39.67-4.977 59.044 0v-145.838c-19.599-2.417-39.444-2.417-59.044 0v0.266zM600.412 206.193v157.88c48.845-4.137 97.219-12.759 144.486-25.805-28.897-61.297-80.691-108.81-144.261-132.362l-0.225 0.287zM628.982 421.151c5.796 18.903 6.84 38.953 3.092 58.368 42.23-4.936 83.948-13.537 124.682-25.702 2.826-0.881 5.755-1.311 8.724-1.311 1.331 0.123 2.642 0.328 3.953 0.635 0-1.638 0.266-3.215 0.266-4.854 0-17.981-1.905-35.922-5.632-53.514-44.196 12.452-89.375 21.176-135.025 26.112l-0.061 0.266z" />
<glyph unicode="&#xe919;" glyph-name="ico26" d="M627.958 609.772c-15.196 7.455-33.649 1.229-41.124-14.029l-111.493-226.796-42.516 49.070c-11.121 12.8-30.474 14.213-43.336 3.092-12.82-11.121-14.193-30.515-3.092-43.336l72.888-84.070c5.878-6.779 14.377-10.609 23.224-10.609 1.29 0 2.621 0.082 3.932 0.266 10.22 1.311 19.087 7.66 23.613 16.896l131.912 268.411c7.496 15.217 1.208 33.628-14.008 41.103zM512 775.68c-180.675 0-327.68-147.005-327.68-327.68s147.005-327.68 327.68-327.68 327.68 147.005 327.68 327.68-147.005 327.68-327.68 327.68zM512 181.76c-146.801 0-266.24 119.439-266.24 266.24s119.439 266.24 266.24 266.24 266.24-119.439 266.24-266.24c0-146.801-119.439-266.24-266.24-266.24z" />
<glyph unicode="&#xe91a;" glyph-name="ico27" d="M844.861 552.509c-5.816 7.229-14.602 11.407-23.88 11.407h-116.818l93.327 142.52c9.298 14.193 5.325 33.239-8.888 42.537-14.111 9.277-33.198 5.325-42.516-8.868l-107.602-164.332c-2.437-3.707-3.912-7.741-4.567-11.858h-243.814c-0.676 4.116-2.15 8.151-4.567 11.858l-107.602 164.332c-9.298 14.193-28.365 18.145-42.516 8.868-14.193-9.298-18.186-28.324-8.888-42.537l93.327-142.52h-116.838c-9.277 0-18.063-4.198-23.88-11.407-5.837-7.209-8.11-16.671-6.164-25.743l77.23-360.489c3.031-14.152 15.565-24.289 30.044-24.289h463.483c14.479 0 26.993 10.117 30.044 24.289l77.23 360.489c1.946 9.073-0.307 18.534-6.144 25.743zM758.6 388.69h-112.886v113.787h137.257l-24.371-113.787zM439.726 388.69v113.787h144.568v-113.787h-144.568zM584.274 327.25v-123.822h-144.568v123.822h144.568zM378.286 502.477v-113.787h-112.886l-24.371 113.787h137.257zM278.569 327.25h99.717v-123.822h-73.175l-26.542 123.822zM718.909 203.448h-73.175v123.822h99.717l-26.542-123.822z" />
<glyph unicode="&#xe91b;" glyph-name="ico28" d="M844.861 552.509c-2.54 3.154-5.734 5.612-9.196 7.516l-17.367 69.509c-3.174 12.759-14.131 22.077-27.238 23.163l-27.279 2.273 33.71 51.487c9.298 14.193 5.325 33.239-8.888 42.537-14.111 9.277-33.198 5.325-42.516-8.868l-51.958-79.34-138.117 11.51-14.766 45.937c-4.813 15.073-20.296 23.941-35.82 20.603l-198.226-43.438-29.286 44.708c-9.298 14.193-28.365 18.145-42.516 8.868-14.193-9.298-18.186-28.324-8.888-42.537l16.445-25.129-46.531-10.199c-8.417-1.843-15.708-7.168-20.029-14.643s-5.304-16.425-2.683-24.658l21.832-68.895c-6.41-1.597-12.206-5.181-16.425-10.424-5.837-7.209-8.11-16.671-6.164-25.743l77.23-360.489c3.031-14.152 15.565-24.289 30.044-24.289h463.483c14.479 0 26.993 10.117 30.044 24.289l77.23 360.489c1.966 9.093-0.287 18.555-6.124 25.764zM439.726 388.69v113.787h144.568v-113.787h-144.568zM584.274 327.25v-123.822h-144.568v123.822h144.568zM241.029 502.477h137.257v-113.787h-112.886l-24.371 113.787zM645.714 502.477h137.257l-24.371-113.787h-112.886v113.787zM764.027 593.285l7.332-29.368h-181.002c-0.246 1.475-0.471 2.949-0.942 4.424l-13.046 40.591 187.658-15.647zM491.295 672.829l35.021-108.913h-271.237c1.229 5.202 1.208 10.772-0.532 16.241l-12.083 38.154 248.832 54.518zM278.569 327.25h99.717v-123.822h-73.175l-26.542 123.822zM718.909 203.448h-73.175v123.822h99.717l-26.542-123.822z" />
<glyph unicode="&#xe91c;" glyph-name="ico29" d="M924.774 408.719c-0.143 0.635-0.389 1.229-0.573 1.843-0.553 1.782-1.229 3.461-2.068 5.079-0.205 0.369-0.266 0.799-0.471 1.167l-71.004 124.232c-5.489 9.564-15.667 15.483-26.685 15.483h-146.78v75.796c0 16.978-13.763 30.72-30.72 30.72h-390.472c-16.957 0-30.72-13.742-30.72-30.72v-461.476c0-16.957 13.763-30.72 30.72-30.72h72.151c13.128-41.021 51.159-71.004 96.461-71.004s83.333 29.983 96.461 71.004h153.19c13.128-41.021 51.159-71.004 96.461-71.004s83.333 29.983 96.44 71.004h27.812c16.957 0 30.72 13.763 30.72 30.72v230.728c0 2.478-0.369 4.854-0.922 7.148zM864.256 210.719c-15.544 36.311-51.589 61.85-93.512 61.85s-77.988-25.539-93.532-61.85v160.154h187.044v-160.154zM806.154 495.104l35.881-62.792h-164.844v62.792h128.963zM286.72 601.6h329.032v-400.036h-94.679c-13.128 41.021-51.159 71.004-96.461 71.004s-83.333-29.983-96.461-71.004h-41.431v400.036zM424.612 130.56c-22.221 0-40.284 18.063-40.284 40.284s18.063 40.284 40.284 40.284 40.284-18.063 40.284-40.284-18.063-40.284-40.284-40.284zM770.744 130.56c-22.221 0-40.284 18.063-40.284 40.284s18.063 40.284 40.284 40.284c22.2 0 40.264-18.063 40.264-40.284s-18.063-40.284-40.264-40.284z" />
<glyph unicode="&#xe91d;" glyph-name="ico30" d="M779.735 714.24h-532.48c-16.957 0-30.72-13.742-30.72-30.72v-532.48c0-16.957 13.763-30.72 30.72-30.72h532.48c16.957 0 30.72 13.763 30.72 30.72v532.48c0 16.978-13.763 30.72-30.72 30.72zM573.44 652.8v-137.155l-44.401 29.594c-5.161 3.441-11.1 5.161-17.039 5.161s-11.878-1.72-17.039-5.161l-44.401-29.594v137.155h122.88zM749.015 181.76h-471.040v471.040h111.145v-194.56c0-11.325 6.246-21.75 16.22-27.095 9.994-5.345 22.118-4.792 31.539 1.536l75.121 50.074 75.121-50.074c5.14-3.441 11.080-5.161 17.039-5.161 4.977 0 9.953 1.208 14.5 3.625 9.974 5.345 16.22 15.77 16.22 27.095v194.56h114.135v-471.040zM590.602 344.515h-154.194c-16.957 0-30.72-13.763-30.72-30.72s13.763-30.72 30.72-30.72h154.194c16.957 0 30.72 13.763 30.72 30.72s-13.763 30.72-30.72 30.72z" />
<glyph unicode="&#xe91e;" glyph-name="ico31" d="M510.3 772.26c-180.675 0-327.68-147.005-327.68-327.68 0-180.695 147.005-327.68 327.68-327.68s327.68 147.005 327.68 327.68c0 180.695-147.005 327.68-327.68 327.68zM510.3 178.34c-146.801 0-266.24 119.439-266.24 266.24s119.439 266.24 266.24 266.24 266.24-119.439 266.24-266.24-119.439-266.24-266.24-266.24zM649.687 583.967c-12.001 12.001-31.437 12.001-43.438 0l-95.949-95.949-95.949 95.949c-12.001 12.001-31.437 12.001-43.438 0-12.001-11.981-12.001-31.437 0-43.438l95.949-95.949-95.949-95.949c-12.001-12.001-12.001-31.437 0-43.438 6.001-6.001 13.865-8.991 21.729-8.991s15.729 2.99 21.729 8.991l95.949 95.949 95.949-95.949c6.001-6.001 13.865-8.991 21.729-8.991s15.729 2.99 21.729 8.991c12.001 12.001 12.001 31.437 0 43.438l-95.949 95.949 95.949 95.949c11.96 12.001 11.96 31.457-0.041 43.438z" />
</font>
</defs>
</svg>
